<svg aria-hidden="true" style="position: absolute; width: 0; height: 0; overflow: hidden;" version="1.1" xmlns="http://www.w3.org/2000/svg" xmlns:xlink="http://www.w3.org/1999/xlink">
<defs>
<symbol id="icon-youtube" viewBox="0 0 32 32">
<path fill="#f00" style="fill: var(--color1, #f00)" d="M31.327 8.273c-0.386-1.353-1.431-2.398-2.756-2.777l-0.028-0.007c-2.493-0.668-12.528-0.668-12.528-0.668s-10.009-0.013-12.528 0.668c-1.353 0.386-2.398 1.431-2.777 2.756l-0.007 0.028c-0.443 2.281-0.696 4.903-0.696 7.585 0 0.054 0 0.109 0 0.163l-0-0.008c-0 0.037-0 0.082-0 0.126 0 2.682 0.253 5.304 0.737 7.845l-0.041-0.26c0.386 1.353 1.431 2.398 2.756 2.777l0.028 0.007c2.491 0.669 12.528 0.669 12.528 0.669s10.008 0 12.528-0.669c1.353-0.386 2.398-1.431 2.777-2.756l0.007-0.028c0.425-2.233 0.668-4.803 0.668-7.429 0-0.099-0-0.198-0.001-0.297l0 0.015c0.001-0.092 0.001-0.201 0.001-0.31 0-2.626-0.243-5.196-0.708-7.687l0.040 0.258zM12.812 20.801v-9.591l8.352 4.803z"></path>
</symbol>
<symbol id="icon-logos_youtube" viewBox="0 0 141 32">
<path fill="#f00" style="fill: var(--color1, #f00)" d="M44.108 4.946c-0.259-0.956-0.764-1.828-1.464-2.528s-1.572-1.205-2.528-1.464c-3.5-0.954-17.587-0.954-17.587-0.954s-14.087 0.029-17.587 0.983c-0.956 0.259-1.828 0.763-2.528 1.464s-1.205 1.572-1.464 2.528c-1.059 6.219-1.47 15.695 0.029 21.666 0.259 0.956 0.763 1.828 1.464 2.528s1.572 1.205 2.528 1.464c3.5 0.954 17.587 0.954 17.587 0.954s14.087 0 17.587-0.954c0.956-0.259 1.828-0.763 2.528-1.464s1.205-1.572 1.464-2.528c1.116-6.228 1.461-15.698-0.029-21.694l0-0z"></path>
<path fill="#fff" style="fill: var(--color2, #fff)" d="M18.045 22.562l11.686-6.769-11.686-6.769v13.537z"></path>
<path fill="#282828" style="fill: var(--color3, #282828)" d="M135.513 9.17c1.533 0 2.69 0.289 3.5 0.839s1.389 1.417 1.736 2.604c0.347 1.186 0.492 2.806 0.492 4.888v3.385h-7.434v1.041l0.116 2.864c0.087 0.636 0.231 1.099 0.463 1.388s0.607 0.434 1.099 0.434c0.665 0 1.128-0.26 1.359-0.781 0.26-0.521 0.376-1.389 0.405-2.575l3.847 0.231c0.029 0.174 0.029 0.405 0.029 0.694 0 1.822-0.492 3.182-1.504 4.079s-2.401 1.359-4.223 1.359c-2.198 0-3.731-0.694-4.599-2.054s-1.33-3.5-1.33-6.364v-3.5c0.098-4.917 0.963-8.519 6.046-8.533v0zM82.029 9.546v14.492c0 0.868 0.087 1.504 0.289 1.88 0.411 0.804 1.475 0.599 2.054 0.202 0.334-0.226 0.603-0.535 0.781-0.897v-15.678h4.426v19.756h-3.471l-0.376-2.43h-0.087c-0.954 1.822-2.372 2.748-4.252 2.748-2.894-0.007-3.602-2.092-3.77-4.21l-0.011-0.149c-0.021-0.321-0.033-0.642-0.037-0.963v-14.752h4.455zM104.852 9.546v14.492c0 0.868 0.087 1.504 0.289 1.88 0.411 0.804 1.475 0.599 2.054 0.202 0.334-0.226 0.603-0.535 0.781-0.897v-15.678h4.426v19.756h-3.471l-0.376-2.43h-0.087c-0.954 1.822-2.372 2.748-4.252 2.748-2.894-0.007-3.602-2.092-3.77-4.21l-0.011-0.149c-0.021-0.321-0.033-0.642-0.037-0.963v-14.752h4.455zM69.186 9.17c1.446 0 2.632 0.289 3.5 0.897s1.533 1.533 1.938 2.806c0.405 1.273 0.607 2.979 0.607 5.091v2.863c0 2.112-0.202 3.79-0.607 5.062s-1.041 2.199-1.938 2.806c-0.897 0.578-2.112 0.897-3.616 0.897-1.562 0.029-2.777-0.289-3.674-0.868-0.897-0.607-1.533-1.533-1.909-2.806s-0.55-2.951-0.55-5.062v-2.864c0-2.112 0.202-3.847 0.636-5.12 0.434-1.302 1.099-2.227 2.025-2.806s2.111-0.897 3.587-0.897v0zM119.344 1.244v10.413h0.029c0.405-0.752 0.926-1.359 1.649-1.822 0.675-0.454 1.471-0.696 2.285-0.694 1.070 0 1.88 0.289 2.488 0.839 0.607 0.579 1.041 1.475 1.302 2.719 0.252 1.205 0.396 2.871 0.405 4.973l0 0.205v3.124c0 2.921-0.376 5.091-1.070 6.479-0.723 1.388-1.822 2.083-3.326 2.083-0.839 0-1.591-0.202-2.285-0.578-0.614-0.358-1.123-0.871-1.476-1.488l-0.057-0.104h-0.087l-0.463 1.88h-3.674v-28.029l4.281-0zM101.641 2.256v3.586h-4.397v23.459h-4.339v-23.459h-4.426v-3.587l13.161-0zM53.942 2.256l0.003 0.011c0.042 0.188 0.627 2.788 1.27 5.817l0.127 0.603 0.051 0.244 0.026 0.122 0.051 0.245 0.026 0.123 0.051 0.246 0.074 0.359c0.434 2.098 0.849 4.201 1.097 5.71h0.116c0.238-1.353 0.583-3.085 0.951-4.853l0.097-0.462c0.049-0.231 0.097-0.462 0.146-0.693l0.076-0.358c0.5-2.343 1.014-4.683 1.544-7.019l0.008-0.037 0.013-0.058h4.426l-5.12 18.252v8.764h-4.368v-8.736h-0.029l-5.062-18.281 4.426 0zM69.099 12.236c-0.607 0-1.012 0.318-1.273 0.984s-0.376 1.678-0.376 3.095v6.161c0 1.446 0.116 2.516 0.347 3.153s0.665 0.954 1.302 0.954c0.607 0 1.041-0.318 1.302-0.954s0.376-1.707 0.376-3.153v-6.161c0-1.417-0.116-2.459-0.376-3.095-0.26-0.665-0.694-0.983-1.302-0.983v0zM120.125 12.814c-0.353 0.326-0.603 0.727-0.753 1.229l-0.028 0.102v11.223c0.359 0.607 0.868 1.012 1.764 1.041 0.463 0 0.839-0.174 1.128-0.521s0.492-0.926 0.607-1.736c0.111-0.777 0.169-1.848 0.174-3.212v-2.746c0-1.562-0.058-2.748-0.145-3.587-0.116-0.839-0.26-1.446-0.521-1.793-0.503-0.723-1.591-0.714-2.227 0zM135.427 12.149c-0.492 0.029-0.839 0.174-1.042 0.434-0.231 0.289-0.376 0.723-0.463 1.359-0.085 0.623-0.114 2.803-0.116 2.89v1.42h3.24v-1.228c-0.002 0.438-0.011-0.254-0.031-1.103l-0.003-0.114c-0.018-0.746-0.045-1.579-0.082-1.864-0.087-0.665-0.232-1.128-0.463-1.388s-0.578-0.405-1.041-0.405h0z"></path>
</symbol>
</defs>
</svg>
