<svg width="0" height="0" class="hidden">
  <symbol fill="none" xmlns="http://www.w3.org/2000/svg" viewBox="0 0 16 16" id="icon-arrow-left">
    <path d="M12.6666 8H3.33325" stroke="black" stroke-width="1.33333" stroke-linecap="round" stroke-linejoin="round"></path>
    <path d="M7.99992 12.6668L3.33325 8.00016L7.99992 3.3335" stroke="black" stroke-width="1.33333" stroke-linecap="round" stroke-linejoin="round"></path>
  </symbol>
  <symbol fill="none" xmlns="http://www.w3.org/2000/svg" viewBox="0 0 16 16" id="icon-arrow-right">
    <path d="M3.33341 8H12.6667" stroke="black" stroke-width="1.33333" stroke-linecap="round" stroke-linejoin="round"></path>
    <path d="M8.00008 12.6668L12.6667 8.00016L8.00008 3.3335" stroke="black" stroke-width="1.33333" stroke-linecap="round" stroke-linejoin="round"></path>
  </symbol>
  <symbol fill="none" xmlns="http://www.w3.org/2000/svg" viewBox="0 0 30 30" id="icon-close-btn">
    <path d="M8 8L22 22" stroke="black" stroke-width="2"></path>
    <path d="M8 22L22 8" stroke="black" stroke-width="2"></path>
  </symbol>
  <symbol fill="none" xmlns="http://www.w3.org/2000/svg" viewBox="0 0 24 24" id="icon-film">
    <path d="M19.82 2H4.18C2.97602 2 2 2.97602 2 4.18V19.82C2 21.024 2.97602 22 4.18 22H19.82C21.024 22 22 21.024 22 19.82V4.18C22 2.97602 21.024 2 19.82 2Z" stroke="#818181" stroke-width="2" stroke-linecap="round" stroke-linejoin="round"></path>
    <path d="M7 2V22" stroke="#818181" stroke-width="2" stroke-linecap="round" stroke-linejoin="round"></path>
    <path d="M17 2V22" stroke="#818181" stroke-width="2" stroke-linecap="round" stroke-linejoin="round"></path>
    <path d="M2 12H22" stroke="#818181" stroke-width="2" stroke-linecap="round" stroke-linejoin="round"></path>
    <path d="M2 7H7" stroke="#818181" stroke-width="2" stroke-linecap="round" stroke-linejoin="round"></path>
    <path d="M2 17H7" stroke="#818181" stroke-width="2" stroke-linecap="round" stroke-linejoin="round"></path>
    <path d="M17 17H22" stroke="#818181" stroke-width="2" stroke-linecap="round" stroke-linejoin="round"></path>
    <path d="M17 7H22" stroke="#818181" stroke-width="2" stroke-linecap="round" stroke-linejoin="round"></path>
  </symbol>
  <symbol fill="none" xmlns="http://www.w3.org/2000/svg" viewBox="0 0 14 13" id="icon-heart">
    <path d="M7 12.88L6.02 11.9C2.38 8.68 0 6.51 0 3.85C0 1.68 1.68 0 3.85 0C5.04 0 6.23 0.56 7 1.47C7.77 0.56 8.96 0 10.15 0C12.32 0 14 1.68 14 3.85C14 6.51 11.62 8.68 7.98 11.9L7 12.88Z" fill="#FF6B08"></path>
  </symbol>
  <symbol fill="none" xmlns="http://www.w3.org/2000/svg" viewBox="0 0 14 13" id="icon-heart1">
    <path d="M7 12.88L6.02 11.9C2.38 8.68 0 6.51 0 3.85C0 1.68 1.68 0 3.85 0C5.04 0 6.23 0.56 7 1.47C7.77 0.56 8.96 0 10.15 0C12.32 0 14 1.68 14 3.85C14 6.51 11.62 8.68 7.98 11.9L7 12.88Z" fill="#FF6B08"></path>
  </symbol>
  <symbol fill="none" xmlns="http://www.w3.org/2000/svg" viewBox="0 0 12 12" id="icon-search">
    <path d="M5.5 9.5C7.70914 9.5 9.5 7.70914 9.5 5.5C9.5 3.29086 7.70914 1.5 5.5 1.5C3.29086 1.5 1.5 3.29086 1.5 5.5C1.5 7.70914 3.29086 9.5 5.5 9.5Z" stroke="white" stroke-linecap="round" stroke-linejoin="round"></path>
    <path d="M10.5 10.5002L8.32495 8.3252" stroke="white" stroke-linecap="round" stroke-linejoin="round"></path>
  </symbol>
<symbol id="icon-twitter" viewBox="0 0 32 32">
<path d="M32 6.078c-1.19 0.522-2.458 0.868-3.78 1.036 1.36-0.812 2.398-2.088 2.886-3.626-1.268 0.756-2.668 1.29-4.16 1.588-1.204-1.282-2.92-2.076-4.792-2.076-3.632 0-6.556 2.948-6.556 6.562 0 0.52 0.044 1.020 0.152 1.496-5.454-0.266-10.28-2.88-13.522-6.862-0.566 0.982-0.898 2.106-0.898 3.316 0 2.272 1.17 4.286 2.914 5.452-1.054-0.020-2.088-0.326-2.964-0.808 0 0.020 0 0.046 0 0.072 0 3.188 2.274 5.836 5.256 6.446-0.534 0.146-1.116 0.216-1.72 0.216-0.42 0-0.844-0.024-1.242-0.112 0.85 2.598 3.262 4.508 6.13 4.57-2.232 1.746-5.066 2.798-8.134 2.798-0.538 0-1.054-0.024-1.57-0.090 2.906 1.874 6.35 2.944 10.064 2.944 12.072 0 18.672-10 18.672-18.668 0-0.29-0.010-0.57-0.024-0.848 1.302-0.924 2.396-2.078 3.288-3.406z"></path>
</symbol>
<symbol id="icon-facebook" viewBox="0 0 32 32">
<path d="M21.329 5.313h2.921v-5.088c-0.504-0.069-2.237-0.225-4.256-0.225-4.212 0-7.097 2.649-7.097 7.519v4.481h-4.648v5.688h4.648v14.312h5.699v-14.311h4.46l0.708-5.688h-5.169v-3.919c0.001-1.644 0.444-2.769 2.735-2.769z"></path>
</symbol>
<symbol id="icon-close-button" viewBox="0 0 18 18" xmlns="http://www.w3.org/2000/svg">
<path d="M15 4.10786L13.8921 3L9.5 7.39214L5.10786 3L4 4.10786L8.39214 8.5L4 12.8921L5.10786 14L9.5 9.60786L13.8921 14L15 12.8921L10.6079 8.5L15 4.10786Z"/>
</symbol>
<symbol id="icon-person"  width="18" height="18" viewBox="0 0 18 18"  xmlns="http://www.w3.org/2000/svg">
<path d="M9 9C10.6575 9 12 7.6575 12 6C12 4.3425 10.6575 3 9 3C7.3425 3 6 4.3425 6 6C6 7.6575 7.3425 9 9 9ZM9 10.5C6.9975 10.5 3 11.505 3 13.5V14.25C3 14.6625 3.3375 15 3.75 15H14.25C14.6625 15 15 14.6625 15 14.25V13.5C15 11.505 11.0025 10.5 9 10.5Z"/>
</symbol>
<symbol id="icon-email" width="18" height="18" viewBox="0 0 18 18" xmlns="http://www.w3.org/2000/svg">
<path d="M15 3H3C2.175 3 1.5075 3.675 1.5075 4.5L1.5 13.5C1.5 14.325 2.175 15 3 15H15C15.825 15 16.5 14.325 16.5 13.5V4.5C16.5 3.675 15.825 3 15 3ZM14.7 6.1875L9.3975 9.5025C9.1575 9.6525 8.8425 9.6525 8.6025 9.5025L3.3 6.1875C3.1125 6.0675 3 5.865 3 5.6475C3 5.145 3.5475 4.845 3.975 5.1075L9 8.25L14.025 5.1075C14.4525 4.845 15 5.145 15 5.6475C15 5.865 14.8875 6.0675 14.7 6.1875Z"/>
</symbol>
<symbol id="moon"  viewBox="0 0 32 32" xmlns="http://www.w3.org/2000/svg">
<path d="M17.701 32a15.97 15.97 0 0012.429-5.925c.442-.544-.04-1.339-.723-1.209-7.763 1.478-14.891-4.474-14.891-12.31 0-4.514 2.416-8.665 6.344-10.9.605-.345.453-1.262-.235-1.389-.879-.17-1.89-.267-2.923-.268-8.832 0-16 7.157-16 16 0 8.832 7.157 16 16 16z"/>
</symbol>
<symbol 
id="sun" viewBox="0 0 32 32" xmlns="http://www.w3.org/2000/svg">
<path d="M16 10c-3.306 0-6 2.694-6 6s2.694 6 6 6 6-2.694 6-6-2.694-6-6-6zm15.4 5.031l-5.919-2.956L27.575 5.8c.281-.85-.525-1.656-1.369-1.369l-6.275 2.094L16.969.6c-.4-.8-1.537-.8-1.938 0l-2.956 5.919-6.281-2.094c-.85-.281-1.656.525-1.369 1.369l2.094 6.275L.6 15.032c-.8.4-.8 1.538 0 1.938l5.919 2.956-2.094 6.281c-.281.85.525 1.656 1.369 1.369l6.275-2.094 2.956 5.919c.4.8 1.538.8 1.938 0l2.956-5.919 6.275 2.094c.85.281 1.656-.525 1.369-1.369l-2.094-6.275 5.919-2.956c.813-.406.813-1.544.012-1.944zm-9.744 6.625c-3.119 3.119-8.194 3.119-11.313 0s-3.119-8.194 0-11.313c3.119-3.119 8.194-3.119 11.313 0s3.119 8.194 0 11.313z"/>
</symbol>
<symbol id="icon-logos_youtube" viewBox="0 0 141 32">
<path fill="#f00" style="fill: var(--color1, #f00)" d="M44.108 4.946c-0.259-0.956-0.764-1.828-1.464-2.528s-1.572-1.205-2.528-1.464c-3.5-0.954-17.587-0.954-17.587-0.954s-14.087 0.029-17.587 0.983c-0.956 0.259-1.828 0.763-2.528 1.464s-1.205 1.572-1.464 2.528c-1.059 6.219-1.47 15.695 0.029 21.666 0.259 0.956 0.763 1.828 1.464 2.528s1.572 1.205 2.528 1.464c3.5 0.954 17.587 0.954 17.587 0.954s14.087 0 17.587-0.954c0.956-0.259 1.828-0.763 2.528-1.464s1.205-1.572 1.464-2.528c1.116-6.228 1.461-15.698-0.029-21.694l0-0z"></path>
<path fill="#fff" style="fill: var(--color2, #fff)" d="M18.045 22.562l11.686-6.769-11.686-6.769v13.537z"></path>
<path fill="#282828" style="fill: var(--color3, #282828)" d="M135.513 9.17c1.533 0 2.69 0.289 3.5 0.839s1.389 1.417 1.736 2.604c0.347 1.186 0.492 2.806 0.492 4.888v3.385h-7.434v1.041l0.116 2.864c0.087 0.636 0.231 1.099 0.463 1.388s0.607 0.434 1.099 0.434c0.665 0 1.128-0.26 1.359-0.781 0.26-0.521 0.376-1.389 0.405-2.575l3.847 0.231c0.029 0.174 0.029 0.405 0.029 0.694 0 1.822-0.492 3.182-1.504 4.079s-2.401 1.359-4.223 1.359c-2.198 0-3.731-0.694-4.599-2.054s-1.33-3.5-1.33-6.364v-3.5c0.098-4.917 0.963-8.519 6.046-8.533v0zM82.029 9.546v14.492c0 0.868 0.087 1.504 0.289 1.88 0.411 0.804 1.475 0.599 2.054 0.202 0.334-0.226 0.603-0.535 0.781-0.897v-15.678h4.426v19.756h-3.471l-0.376-2.43h-0.087c-0.954 1.822-2.372 2.748-4.252 2.748-2.894-0.007-3.602-2.092-3.77-4.21l-0.011-0.149c-0.021-0.321-0.033-0.642-0.037-0.963v-14.752h4.455zM104.852 9.546v14.492c0 0.868 0.087 1.504 0.289 1.88 0.411 0.804 1.475 0.599 2.054 0.202 0.334-0.226 0.603-0.535 0.781-0.897v-15.678h4.426v19.756h-3.471l-0.376-2.43h-0.087c-0.954 1.822-2.372 2.748-4.252 2.748-2.894-0.007-3.602-2.092-3.77-4.21l-0.011-0.149c-0.021-0.321-0.033-0.642-0.037-0.963v-14.752h4.455zM69.186 9.17c1.446 0 2.632 0.289 3.5 0.897s1.533 1.533 1.938 2.806c0.405 1.273 0.607 2.979 0.607 5.091v2.863c0 2.112-0.202 3.79-0.607 5.062s-1.041 2.199-1.938 2.806c-0.897 0.578-2.112 0.897-3.616 0.897-1.562 0.029-2.777-0.289-3.674-0.868-0.897-0.607-1.533-1.533-1.909-2.806s-0.55-2.951-0.55-5.062v-2.864c0-2.112 0.202-3.847 0.636-5.12 0.434-1.302 1.099-2.227 2.025-2.806s2.111-0.897 3.587-0.897v0zM119.344 1.244v10.413h0.029c0.405-0.752 0.926-1.359 1.649-1.822 0.675-0.454 1.471-0.696 2.285-0.694 1.070 0 1.88 0.289 2.488 0.839 0.607 0.579 1.041 1.475 1.302 2.719 0.252 1.205 0.396 2.871 0.405 4.973l0 0.205v3.124c0 2.921-0.376 5.091-1.070 6.479-0.723 1.388-1.822 2.083-3.326 2.083-0.839 0-1.591-0.202-2.285-0.578-0.614-0.358-1.123-0.871-1.476-1.488l-0.057-0.104h-0.087l-0.463 1.88h-3.674v-28.029l4.281-0zM101.641 2.256v3.586h-4.397v23.459h-4.339v-23.459h-4.426v-3.587l13.161-0zM53.942 2.256l0.003 0.011c0.042 0.188 0.627 2.788 1.27 5.817l0.127 0.603 0.051 0.244 0.026 0.122 0.051 0.245 0.026 0.123 0.051 0.246 0.074 0.359c0.434 2.098 0.849 4.201 1.097 5.71h0.116c0.238-1.353 0.583-3.085 0.951-4.853l0.097-0.462c0.049-0.231 0.097-0.462 0.146-0.693l0.076-0.358c0.5-2.343 1.014-4.683 1.544-7.019l0.008-0.037 0.013-0.058h4.426l-5.12 18.252v8.764h-4.368v-8.736h-0.029l-5.062-18.281 4.426 0zM69.099 12.236c-0.607 0-1.012 0.318-1.273 0.984s-0.376 1.678-0.376 3.095v6.161c0 1.446 0.116 2.516 0.347 3.153s0.665 0.954 1.302 0.954c0.607 0 1.041-0.318 1.302-0.954s0.376-1.707 0.376-3.153v-6.161c0-1.417-0.116-2.459-0.376-3.095-0.26-0.665-0.694-0.983-1.302-0.983v0zM120.125 12.814c-0.353 0.326-0.603 0.727-0.753 1.229l-0.028 0.102v11.223c0.359 0.607 0.868 1.012 1.764 1.041 0.463 0 0.839-0.174 1.128-0.521s0.492-0.926 0.607-1.736c0.111-0.777 0.169-1.848 0.174-3.212v-2.746c0-1.562-0.058-2.748-0.145-3.587-0.116-0.839-0.26-1.446-0.521-1.793-0.503-0.723-1.591-0.714-2.227 0zM135.427 12.149c-0.492 0.029-0.839 0.174-1.042 0.434-0.231 0.289-0.376 0.723-0.463 1.359-0.085 0.623-0.114 2.803-0.116 2.89v1.42h3.24v-1.228c-0.002 0.438-0.011-0.254-0.031-1.103l-0.003-0.114c-0.018-0.746-0.045-1.579-0.082-1.864-0.087-0.665-0.232-1.128-0.463-1.388s-0.578-0.405-1.041-0.405h0z"></path>
</symbol>
</svg>