<svg width="0" height="0" class="hidden">
  <symbol fill="none" xmlns="http://www.w3.org/2000/svg" viewBox="0 0 16 16" id="icon-arrow-left">
    <path d="M12.6666 8H3.33325" stroke="black" stroke-width="1.33333" stroke-linecap="round" stroke-linejoin="round"></path>
    <path d="M7.99992 12.6668L3.33325 8.00016L7.99992 3.3335" stroke="black" stroke-width="1.33333" stroke-linecap="round" stroke-linejoin="round"></path>
  </symbol>
  <symbol fill="none" xmlns="http://www.w3.org/2000/svg" viewBox="0 0 16 16" id="icon-arrow-right">
    <path d="M3.33341 8H12.6667" stroke="black" stroke-width="1.33333" stroke-linecap="round" stroke-linejoin="round"></path>
    <path d="M8.00008 12.6668L12.6667 8.00016L8.00008 3.3335" stroke="black" stroke-width="1.33333" stroke-linecap="round" stroke-linejoin="round"></path>
  </symbol>
  <symbol fill="none" xmlns="http://www.w3.org/2000/svg" viewBox="0 0 30 30" id="icon-close-btn">
    <path d="M8 8L22 22" stroke="black" stroke-width="2"></path>
    <path d="M8 22L22 8" stroke="black" stroke-width="2"></path>
  </symbol>
  <symbol fill="none" xmlns="http://www.w3.org/2000/svg" viewBox="0 0 24 24" id="icon-film">
    <path d="M19.82 2H4.18C2.97602 2 2 2.97602 2 4.18V19.82C2 21.024 2.97602 22 4.18 22H19.82C21.024 22 22 21.024 22 19.82V4.18C22 2.97602 21.024 2 19.82 2Z" stroke="#818181" stroke-width="2" stroke-linecap="round" stroke-linejoin="round"></path>
    <path d="M7 2V22" stroke="#818181" stroke-width="2" stroke-linecap="round" stroke-linejoin="round"></path>
    <path d="M17 2V22" stroke="#818181" stroke-width="2" stroke-linecap="round" stroke-linejoin="round"></path>
    <path d="M2 12H22" stroke="#818181" stroke-width="2" stroke-linecap="round" stroke-linejoin="round"></path>
    <path d="M2 7H7" stroke="#818181" stroke-width="2" stroke-linecap="round" stroke-linejoin="round"></path>
    <path d="M2 17H7" stroke="#818181" stroke-width="2" stroke-linecap="round" stroke-linejoin="round"></path>
    <path d="M17 17H22" stroke="#818181" stroke-width="2" stroke-linecap="round" stroke-linejoin="round"></path>
    <path d="M17 7H22" stroke="#818181" stroke-width="2" stroke-linecap="round" stroke-linejoin="round"></path>
  </symbol>
  <symbol fill="none" xmlns="http://www.w3.org/2000/svg" viewBox="0 0 14 13" id="icon-heart">
    <path d="M7 12.88L6.02 11.9C2.38 8.68 0 6.51 0 3.85C0 1.68 1.68 0 3.85 0C5.04 0 6.23 0.56 7 1.47C7.77 0.56 8.96 0 10.15 0C12.32 0 14 1.68 14 3.85C14 6.51 11.62 8.68 7.98 11.9L7 12.88Z" fill="#FF6B08"></path>
  </symbol>
  <symbol fill="none" xmlns="http://www.w3.org/2000/svg" viewBox="0 0 14 13" id="icon-heart1">
    <path d="M7 12.88L6.02 11.9C2.38 8.68 0 6.51 0 3.85C0 1.68 1.68 0 3.85 0C5.04 0 6.23 0.56 7 1.47C7.77 0.56 8.96 0 10.15 0C12.32 0 14 1.68 14 3.85C14 6.51 11.62 8.68 7.98 11.9L7 12.88Z" fill="#FF6B08"></path>
  </symbol>
  <symbol fill="none" xmlns="http://www.w3.org/2000/svg" viewBox="0 0 12 12" id="icon-search">
    <path d="M5.5 9.5C7.70914 9.5 9.5 7.70914 9.5 5.5C9.5 3.29086 7.70914 1.5 5.5 1.5C3.29086 1.5 1.5 3.29086 1.5 5.5C1.5 7.70914 3.29086 9.5 5.5 9.5Z" stroke="white" stroke-linecap="round" stroke-linejoin="round"></path>
    <path d="M10.5 10.5002L8.32495 8.3252" stroke="white" stroke-linecap="round" stroke-linejoin="round"></path>
  </symbol>
<symbol id="icon-twitter" viewBox="0 0 32 32">
<path d="M32 6.078c-1.19 0.522-2.458 0.868-3.78 1.036 1.36-0.812 2.398-2.088 2.886-3.626-1.268 0.756-2.668 1.29-4.16 1.588-1.204-1.282-2.92-2.076-4.792-2.076-3.632 0-6.556 2.948-6.556 6.562 0 0.52 0.044 1.020 0.152 1.496-5.454-0.266-10.28-2.88-13.522-6.862-0.566 0.982-0.898 2.106-0.898 3.316 0 2.272 1.17 4.286 2.914 5.452-1.054-0.020-2.088-0.326-2.964-0.808 0 0.020 0 0.046 0 0.072 0 3.188 2.274 5.836 5.256 6.446-0.534 0.146-1.116 0.216-1.72 0.216-0.42 0-0.844-0.024-1.242-0.112 0.85 2.598 3.262 4.508 6.13 4.57-2.232 1.746-5.066 2.798-8.134 2.798-0.538 0-1.054-0.024-1.57-0.090 2.906 1.874 6.35 2.944 10.064 2.944 12.072 0 18.672-10 18.672-18.668 0-0.29-0.010-0.57-0.024-0.848 1.302-0.924 2.396-2.078 3.288-3.406z"></path>
</symbol>
<symbol id="icon-facebook" viewBox="0 0 32 32">
<path d="M21.329 5.313h2.921v-5.088c-0.504-0.069-2.237-0.225-4.256-0.225-4.212 0-7.097 2.649-7.097 7.519v4.481h-4.648v5.688h4.648v14.312h5.699v-14.311h4.46l0.708-5.688h-5.169v-3.919c0.001-1.644 0.444-2.769 2.735-2.769z"></path>
</symbol>
<symbol id="icon-close-button" viewBox="0 0 18 18" xmlns="http://www.w3.org/2000/svg">
<path d="M15 4.10786L13.8921 3L9.5 7.39214L5.10786 3L4 4.10786L8.39214 8.5L4 12.8921L5.10786 14L9.5 9.60786L13.8921 14L15 12.8921L10.6079 8.5L15 4.10786Z"/>
</symbol>
<symbol id="icon-person"  width="18" height="18" viewBox="0 0 18 18"  xmlns="http://www.w3.org/2000/svg">
<path d="M9 9C10.6575 9 12 7.6575 12 6C12 4.3425 10.6575 3 9 3C7.3425 3 6 4.3425 6 6C6 7.6575 7.3425 9 9 9ZM9 10.5C6.9975 10.5 3 11.505 3 13.5V14.25C3 14.6625 3.3375 15 3.75 15H14.25C14.6625 15 15 14.6625 15 14.25V13.5C15 11.505 11.0025 10.5 9 10.5Z"/>
</symbol>
<symbol id="icon-email" width="18" height="18" viewBox="0 0 18 18" xmlns="http://www.w3.org/2000/svg">
<path d="M15 3H3C2.175 3 1.5075 3.675 1.5075 4.5L1.5 13.5C1.5 14.325 2.175 15 3 15H15C15.825 15 16.5 14.325 16.5 13.5V4.5C16.5 3.675 15.825 3 15 3ZM14.7 6.1875L9.3975 9.5025C9.1575 9.6525 8.8425 9.6525 8.6025 9.5025L3.3 6.1875C3.1125 6.0675 3 5.865 3 5.6475C3 5.145 3.5475 4.845 3.975 5.1075L9 8.25L14.025 5.1075C14.4525 4.845 15 5.145 15 5.6475C15 5.865 14.8875 6.0675 14.7 6.1875Z"/>
</symbol>
<symbol id="moon"  viewBox="0 0 32 32" xmlns="http://www.w3.org/2000/svg">
<path d="M17.701 32a15.97 15.97 0 0012.429-5.925c.442-.544-.04-1.339-.723-1.209-7.763 1.478-14.891-4.474-14.891-12.31 0-4.514 2.416-8.665 6.344-10.9.605-.345.453-1.262-.235-1.389-.879-.17-1.89-.267-2.923-.268-8.832 0-16 7.157-16 16 0 8.832 7.157 16 16 16z"/>
</symbol>
<symbol 
id="sun" viewBox="0 0 32 32" xmlns="http://www.w3.org/2000/svg">
<path d="M16 10c-3.306 0-6 2.694-6 6s2.694 6 6 6 6-2.694 6-6-2.694-6-6-6zm15.4 5.031l-5.919-2.956L27.575 5.8c.281-.85-.525-1.656-1.369-1.369l-6.275 2.094L16.969.6c-.4-.8-1.537-.8-1.938 0l-2.956 5.919-6.281-2.094c-.85-.281-1.656.525-1.369 1.369l2.094 6.275L.6 15.032c-.8.4-.8 1.538 0 1.938l5.919 2.956-2.094 6.281c-.281.85.525 1.656 1.369 1.369l6.275-2.094 2.956 5.919c.4.8 1.538.8 1.938 0l2.956-5.919 6.275 2.094c.85.281 1.656-.525 1.369-1.369l-2.094-6.275 5.919-2.956c.813-.406.813-1.544.012-1.944zm-9.744 6.625c-3.119 3.119-8.194 3.119-11.313 0s-3.119-8.194 0-11.313c3.119-3.119 8.194-3.119 11.313 0s3.119 8.194 0 11.313z"/>
</symbol>
<symbol id="up-arrow2" viewBox="0 0 24 24" xmlns="http://www.w3.org/2000/svg">
<path d="M7.406 15.422l-1.406-1.406 6-6 6 6-1.406 1.406-4.594-4.594z"></path>
</symbol>
<symbol id="doun-arrow2" viewBox="0 0 24 24" xmlns="http://www.w3.org/2000/svg">
<path d="M7.406 8.578l4.594 4.594 4.594-4.594 1.406 1.406-6 6-6-6z"></path>
</symbol>
  <symbol version="1.1" xmlns="http://www.w3.org/2000/svg" xmlns:xlink="http://www.w3.org/1999/xlink" x="0px" y="0px" enable-background="new 0 0 1000 1000" xml:space="preserve" viewBox="0 0 1000 1000" id="icon-password">
    <metadata>Svg Vector Icons : http://www.onlinewebfonts.com/icon</metadata>
    <g>
      <path d="M500,550.6c-27.8,0-50.6,22.9-50.6,50.6c0,18,9.8,34.3,26.1,44.1v49c0,14.7,11.4,24.5,26.1,24.5c14.7,0,26.1-11.4,26.1-24.5v-49c14.7-8.2,26.1-24.5,26.1-44.1C550.6,573.5,527.8,550.6,500,550.6z"></path>
      <path d="M500,10C228.9,10,10,228.9,10,500c0,271.1,218.9,490,490,490c271.1,0,490-218.9,490-490C990,228.9,771.1,10,500,10z M720.5,745c0,14.7-11.4,24.5-26.1,24.5H305.6c-14.7,0-26.1-11.4-26.1-24.5V524.5c0-14.7,11.4-24.5,26.1-24.5h42.5V382.4c0-83.3,68.6-151.9,151.9-151.9s151.9,68.6,151.9,151.9c0,14.7-11.4,24.5-26.1,24.5c-14.7,0-26.1-11.4-26.1-24.5c0-55.5-45.7-101.3-101.3-101.3c-55.5,0-101.3,45.7-101.3,101.3V500h204.2h50.6h42.5c14.7,0,26.1,11.4,26.1,24.5V745z"></path>
    </g>
  </symbol>
</svg>